<?xml version="1.0" encoding="UTF-8"?>
<svg width="192" height="192" fill="none" version="1.1" viewBox="0 0 192 192" xmlns="http://www.w3.org/2000/svg"><path d="m0 83.098c0-68.431 14.667-83.098 83.098-83.098h25.804c68.431 0 83.098 14.667 83.098 83.098v25.804c0 68.431-14.667 83.098-83.098 83.098h-25.804c-68.431 0-83.098-14.667-83.098-83.098z" fill="#146bb9"/><path d="m111.39 53.333c-48.762 14.9-51.471 63.662-47.408 81.27 10.317-3.116 20.481-4.808 29.53-6.315 17.866-2.974 31.387-5.225 33.157-16.288-1.007-7.297-4.482-13.928-8.022-20.684-5.84-11.144-11.857-22.625-7.257-37.983zm19.945 63.334c-0.411 12.757-11.491 13.829-28.208 15.446-10.364 1.003-22.896 2.216-36.395 6.554 13.929-3.987 28.425-4.714 40.388-5.314 20.048-1.007 32.983-1.656 24.215-16.686zm-64.603 13.873c-4.0635-32.508 9.4814-58.244 36.572-71.789-17.609 9.4815-37.302 28.582-31.302 69.249z" fill="#fff"/></svg>
